<?xml version="1.0" encoding="UTF-8" standalone="no"?>
<!-- Created with Inkscape (http://www.inkscape.org/) -->

<svg
   xmlns:dc="http://purl.org/dc/elements/1.1/"
   xmlns:cc="http://creativecommons.org/ns#"
   xmlns:rdf="http://www.w3.org/1999/02/22-rdf-syntax-ns#"
   xmlns:svg="http://www.w3.org/2000/svg"
   xmlns="http://www.w3.org/2000/svg"
   xmlns:sodipodi="http://sodipodi.sourceforge.net/DTD/sodipodi-0.dtd"
   xmlns:inkscape="http://www.inkscape.org/namespaces/inkscape"
   width="793.70081"
   height="180"
   viewBox="0 0 210 47.625001"
   version="1.1"
   id="svg3981"
   inkscape:version="0.92.3 (2405546, 2018-03-11)"
   sodipodi:docname="scorpioLogoDarkBlue.svg">
  <defs
     id="defs3975">
    <clipPath
       clipPathUnits="userSpaceOnUse"
       id="clipPath46">
      <path
         d="M 302.079,246.6 H 745.432 V 348.675 H 302.079 Z"
         id="path44"
         inkscape:connector-curvature="0" />
    </clipPath>
  </defs>
  <sodipodi:namedview
     id="base"
     pagecolor="#ffffff"
     bordercolor="#666666"
     borderopacity="1.0"
     inkscape:pageopacity="0.0"
     inkscape:pageshadow="2"
     inkscape:zoom="0.35"
     inkscape:cx="400"
     inkscape:cy="560"
     inkscape:document-units="mm"
     inkscape:current-layer="layer1"
     showgrid="false"
     inkscape:window-width="1920"
     inkscape:window-height="1017"
     inkscape:window-x="-8"
     inkscape:window-y="-8"
     inkscape:window-maximized="1"
     units="px" />
  <metadata
     id="metadata3978">
    <rdf:RDF>
      <cc:Work
         rdf:about="">
        <dc:format>image/svg+xml</dc:format>
        <dc:type
           rdf:resource="http://purl.org/dc/dcmitype/StillImage" />
        <dc:title></dc:title>
      </cc:Work>
    </rdf:RDF>
  </metadata>
  <g
     inkscape:label="Layer 1"
     inkscape:groupmode="layer"
     id="layer1"
     transform="translate(0,-249.37498)">
    <g
       transform="matrix(0.45551719,0,0,-0.45551719,-134.68536,408.48517)"
       clip-path="url(#clipPath46)"
       id="g42">
      <g
         transform="translate(402.7503,262.6455)"
         id="g48">
        <path
           inkscape:connector-curvature="0"
           id="path50"
           style="fill:#10253f;fill-opacity:1;fill-rule:nonzero;stroke:none"
           d="m 0,0 c -35.597,2.696 -65.753,11.891 -75.865,21.319 -0.67,0.623 -1.802,1.652 -1.746,1.885 0.054,0.224 0.688,-0.468 2.057,-1.237 7.087,-3.969 32.431,-16.012 75.601,-13.798 2.255,0.114 4.565,0.271 6.916,0.466 3.061,0.258 6.201,0.583 9.424,0.988 -2.275,10.838 -11.385,13.223 -17.7,13.223 h -20.116 c -3.158,0 -6.071,1.423 -6.071,5.445 0,3.947 2.758,5.372 5.912,5.372 h 35.27 v 13.091 h -38.583 c -7.259,0 -18.226,-2.916 -18.226,-18.463 0,-4.051 0.739,-7.234 1.958,-9.748 -14.885,3.267 -27.5,8.599 -33.851,15.804 -12.051,13.682 -4.438,32.812 21.747,40.51 22.669,6.662 50.696,1.613 63.06,-11.835 2.517,-2.737 3.209,-5.471 3.505,-5.475 0.869,-0.009 -0.843,4.686 -4.222,8 C -5.782,80.105 -36.781,87.741 -62.58,80.157 -79.24,75.256 -90.166,66.724 -95.683,56.11 -101.201,45.505 -99.325,34.15 -90.515,24.004 -78.62,10.307 -60.803,0.511 -40.526,-4.778 v -9.85 h 39.213 c 6.427,0 15.752,2.477 17.814,13.875 -3.207,0.052 -6.387,0.159 -9.538,0.32 C 4.623,-0.318 2.299,-0.173 0,0 m 312.152,47.628 c -16.47,0 -24.715,-6.504 -28.292,-16.224 5.753,-0.58 11.136,-1.179 16.1,-1.766 2.12,3.281 5.811,5.361 12.192,5.361 8.388,0 12.115,-3.628 13.711,-8.89 5.815,-0.924 9.305,-1.596 9.935,-1.82 3.415,-1.201 -0.558,-1.213 -9.294,-0.975 0.37,-2.257 0.479,-4.713 0.479,-7.254 0,-10.096 -1.73,-18.933 -14.831,-18.933 -13.176,0 -14.915,8.837 -14.915,18.933 0,2.779 0.135,5.463 0.601,7.893 -4.903,0.062 -10.183,0.094 -15.777,0.107 -0.363,-2.548 -0.525,-5.23 -0.525,-8 0,-17.512 6.47,-31.559 30.616,-31.559 24.067,0 30.532,14.047 30.532,31.559 0,17.603 -6.465,31.568 -30.532,31.568 m -51.29,-14.189 c 5.244,-0.401 10.309,-0.833 15.152,-1.279 V 46.754 H 260.862 V 33.439 m 0,-48.067 h 15.152 v 38.684 c -4.843,-0.011 -9.903,-0.052 -15.152,-0.126 V -14.628 M 231.361,19.06 h -15.15 v 3.494 c -4.975,-0.242 -10.029,-0.515 -15.15,-0.831 v -36.351 h 15.15 V 5.964 h 20.909 c 10.269,0 17.279,5.808 18.133,17.877 -5.441,-0.097 -11.069,-0.231 -16.853,-0.41 -0.836,-2.945 -3.133,-4.371 -7.039,-4.371 m 5.759,27.694 H 201.061 V 36.012 c 18.819,-0.143 36.918,-0.964 53.412,-2.111 -2.232,8.684 -8.61,12.853 -17.353,12.853 m -62.022,0 H 140.541 V 33.849 c 17.382,1.479 34.929,2.123 51.995,2.181 -2.241,7.156 -7.779,10.724 -17.438,10.724 m 18.131,-25.54 C 176.161,20.047 158.436,18.435 140.541,16.241 V -14.628 H 155.69 V 7.306 h 10.177 l 11.918,-21.934 h 17.039 L 181.965,8.489 c 3.725,1.134 9.545,3.503 11.264,12.725 M 104.488,-2.873 c -9.67,0 -13.177,4.756 -14.358,11.277 -5.108,-0.982 -10.186,-2.021 -15.231,-3.12 2.602,-12.162 10.67,-20.783 29.589,-20.783 23.825,0 30.398,13.771 30.526,31.045 -5.244,-0.676 -10.493,-1.405 -15.741,-2.189 -0.359,-8.922 -2.873,-16.23 -14.785,-16.23 m 0,37.872 c 5.361,0 8.812,-1.479 11.026,-3.92 5.464,0.751 10.975,1.406 16.52,1.973 -3.884,8.798 -12.078,14.576 -27.546,14.576 -20.833,0 -28.497,-10.401 -30.216,-24.552 5.457,1.419 11.033,2.701 16.703,3.853 1.739,4.814 5.517,8.07 13.513,8.07 M 43.325,0.199 c -6.54,-0.584 -13.088,-0.894 -19.569,-0.968 3.877,-9.02 11.485,-13.859 22.433,-13.859 H 72.143 V -1.533 H 49.974 c -2.649,0 -4.854,0.596 -6.649,1.732 M 20.782,16.06 c 0,-2.026 0.1,-3.963 0.289,-5.803 5.226,0.762 10.661,1.726 16.299,2.927 -0.065,0.921 -0.096,1.881 -0.096,2.876 0,11.131 3.942,17.603 12.7,17.603 H 72.143 V 46.754 H 46.189 C 29.697,46.754 20.782,35.788 20.782,16.06" />
      </g>
      <g
         transform="translate(376.3629,237.674)"
         id="g52">
        <path
           inkscape:connector-curvature="0"
           id="path54"
           style="fill:#10253f;fill-opacity:1;fill-rule:nonzero;stroke:none"
           d="m 0,0 -0.811,-2.071 c -0.776,0.565 -1.995,0.85 -3.658,0.85 -1.557,0 -2.806,-0.67 -3.747,-2.008 -0.941,-1.341 -1.412,-3.071 -1.412,-5.184 0,-2.017 0.484,-3.655 1.45,-4.91 0.962,-1.258 2.208,-1.883 3.734,-1.883 1.663,0 2.942,0.592 3.837,1.768 l 1.333,-1.851 c -1.405,-1.396 -3.211,-2.097 -5.426,-2.097 -2.317,0 -4.139,0.836 -5.472,2.507 -1.332,1.668 -1.997,3.875 -1.997,6.612 0,2.646 0.71,4.845 2.131,6.6 1.419,1.75 3.256,2.626 5.509,2.626 C -2.6,0.959 -1.089,0.639 0,0" />
      </g>
      <g
         transform="translate(381.5674,229.6114)"
         id="g56">
        <path
           inkscape:connector-curvature="0"
           id="path58"
           style="fill:#10253f;fill-opacity:1;fill-rule:nonzero;stroke:none"
           d="m 0,0 c 0,-2.035 0.403,-3.734 1.206,-5.098 0.802,-1.363 1.934,-2.047 3.397,-2.047 1.654,0 2.914,0.628 3.783,1.878 0.867,1.253 1.3,3.008 1.3,5.267 0,4.57 -1.694,6.855 -5.083,6.855 C 3.102,6.855 1.959,6.241 1.174,5.011 0.392,3.785 0,2.113 0,0 m -2.541,0 c 0,2.566 0.643,4.715 1.931,6.443 1.287,1.726 3.024,2.591 5.213,2.591 2.461,0 4.348,-0.796 5.659,-2.385 C 11.573,5.056 12.23,2.842 12.23,0 c 0,-2.916 -0.659,-5.195 -1.975,-6.847 -1.315,-1.649 -3.2,-2.476 -5.652,-2.476 -2.236,0 -3.987,0.872 -5.251,2.618 -1.264,1.741 -1.893,3.978 -1.893,6.705" />
      </g>
      <g
         transform="translate(409.9375,220.5901)"
         id="g60">
        <path
           inkscape:connector-curvature="0"
           id="path62"
           style="fill:#10253f;fill-opacity:1;fill-rule:nonzero;stroke:none"
           d="M 0,0 -2.107,11.394 -5.981,-0.24 H -6.587 L -10.571,11.394 -12.629,0 h -2.299 l 3.317,17.74 h 1.103 L -6.284,4.798 -2.385,17.74 h 1.09 L 2.299,0 Z" />
      </g>
      <g
         transform="translate(427.5291,220.5901)"
         id="g64">
        <path
           inkscape:connector-curvature="0"
           id="path66"
           style="fill:#10253f;fill-opacity:1;fill-rule:nonzero;stroke:none"
           d="M 0,0 -2.107,11.394 -5.981,-0.24 H -6.587 L -10.571,11.394 -12.629,0 h -2.299 l 3.317,17.74 h 1.103 L -6.284,4.798 -2.385,17.74 h 1.09 L 2.299,0 Z" />
      </g>
      <g
         transform="translate(434.189,236.1507)"
         id="g68">
        <path
           inkscape:connector-curvature="0"
           id="path70"
           style="fill:#10253f;fill-opacity:1;fill-rule:nonzero;stroke:none"
           d="M 0,0 V -4.928 H 5.86 V -6.985 H 0 v -6.397 H 8.041 V -15.56 H -2.42 V 2.181 H 8.173 V 0 Z" />
      </g>
      <g
         transform="translate(447.594,236.1507)"
         id="g72">
        <path
           inkscape:connector-curvature="0"
           id="path74"
           style="fill:#10253f;fill-opacity:1;fill-rule:nonzero;stroke:none"
           d="m 0,0 v -5.764 c 0.58,-0.079 1.145,-0.123 1.694,-0.123 1.452,0 2.51,0.237 3.174,0.703 0.661,0.469 0.99,1.307 0.99,2.506 0,0.993 -0.354,1.71 -1.064,2.145 C 4.083,-0.096 2.96,0.119 1.428,0.119 1.186,0.119 0.708,0.078 0,0 m 7.301,-15.56 -4.733,7.615 c -0.544,0 -1.4,0.041 -2.568,0.124 V -15.56 H -2.423 V 2.181 c 0.09,0 0.715,0.029 1.883,0.087 1.165,0.06 2.017,0.092 2.548,0.092 4.263,0 6.394,-1.694 6.394,-5.087 0,-1.112 -0.343,-2.114 -1.029,-3.008 C 6.685,-6.627 5.872,-7.183 4.926,-7.398 l 5.148,-8.162 z" />
      </g>
      <g
         transform="translate(470.8036,237.674)"
         id="g76">
        <path
           inkscape:connector-curvature="0"
           id="path78"
           style="fill:#10253f;fill-opacity:1;fill-rule:nonzero;stroke:none"
           d="m 0,0 -0.811,-2.071 c -0.776,0.565 -1.995,0.85 -3.658,0.85 -1.557,0 -2.806,-0.67 -3.747,-2.008 -0.941,-1.341 -1.412,-3.071 -1.412,-5.184 0,-2.017 0.484,-3.655 1.45,-4.91 0.962,-1.258 2.208,-1.883 3.734,-1.883 1.663,0 2.942,0.592 3.837,1.768 l 1.333,-1.851 c -1.405,-1.396 -3.211,-2.097 -5.426,-2.097 -2.317,0 -4.139,0.836 -5.472,2.507 -1.331,1.668 -1.997,3.875 -1.997,6.612 0,2.646 0.71,4.845 2.131,6.6 1.419,1.75 3.257,2.626 5.509,2.626 C -2.6,0.959 -1.089,0.639 0,0" />
      </g>
      <path
         inkscape:connector-curvature="0"
         id="path80"
         style="fill:#10253f;fill-opacity:1;fill-rule:nonzero;stroke:none"
         d="m 474.739,238.33 h 2.423 v -17.74 h -2.423 z" />
      <g
         transform="translate(486.8589,233.9228)"
         id="g82">
        <path
           inkscape:connector-curvature="0"
           id="path84"
           style="fill:#10253f;fill-opacity:1;fill-rule:nonzero;stroke:none"
           d="M 0,0 -2.75,-7.808 H 2.519 Z M 4.433,-13.332 3.209,-9.59 h -6.6 L -4.7,-13.332 h -2.711 l 7.205,17.98 h 0.641 l 6.685,-17.98 z" />
      </g>
      <g
         transform="translate(495.843,220.5901)"
         id="g86">
        <path
           inkscape:connector-curvature="0"
           id="path88"
           style="fill:#10253f;fill-opacity:1;fill-rule:nonzero;stroke:none"
           d="M 0,0 V 17.74 H 2.42 V 2.181 h 8.017 V 0 Z" />
      </g>
      <g
         transform="translate(528.3036,220.5901)"
         id="g90">
        <path
           inkscape:connector-curvature="0"
           id="path92"
           style="fill:#10253f;fill-opacity:1;fill-rule:nonzero;stroke:none"
           d="M 0,0 -2.107,11.394 -5.982,-0.24 H -6.587 L -10.571,11.394 -12.629,0 h -2.299 l 3.317,17.74 h 1.103 L -6.284,4.798 -2.385,17.74 h 1.09 L 2.299,0 Z" />
      </g>
      <g
         transform="translate(538.1849,233.9228)"
         id="g94">
        <path
           inkscape:connector-curvature="0"
           id="path96"
           style="fill:#10253f;fill-opacity:1;fill-rule:nonzero;stroke:none"
           d="M 0,0 -2.75,-7.808 H 2.519 Z M 4.433,-13.332 3.209,-9.59 h -6.6 L -4.7,-13.332 h -2.711 l 7.205,17.98 h 0.641 l 6.685,-17.98 z" />
      </g>
      <g
         transform="translate(558.6349,220.3492)"
         id="g98">
        <path
           inkscape:connector-curvature="0"
           id="path100"
           style="fill:#10253f;fill-opacity:1;fill-rule:nonzero;stroke:none"
           d="M 0,0 -9.166,12.969 V 0.24 h -2.299 V 17.98 H -10.5 L -1.573,5.717 V 17.98 H 0.726 V 0 Z" />
      </g>
      <g
         transform="translate(568.6366,233.9228)"
         id="g102">
        <path
           inkscape:connector-curvature="0"
           id="path104"
           style="fill:#10253f;fill-opacity:1;fill-rule:nonzero;stroke:none"
           d="M 0,0 -2.75,-7.808 H 2.519 Z M 4.433,-13.332 3.209,-9.59 h -6.6 L -4.7,-13.332 h -2.711 l 7.205,17.98 h 0.641 l 6.685,-17.98 z" />
      </g>
      <g
         transform="translate(589.9094,237.0962)"
         id="g106">
        <path
           inkscape:connector-curvature="0"
           id="path108"
           style="fill:#10253f;fill-opacity:1;fill-rule:nonzero;stroke:none"
           d="m 0,0 -1.004,-2.001 c -1.219,0.907 -2.414,1.358 -3.586,1.358 -1.855,0 -3.319,-0.652 -4.394,-1.961 -1.072,-1.309 -1.612,-3.039 -1.612,-5.195 0,-2.051 0.529,-3.7 1.582,-4.951 1.054,-1.252 2.488,-1.878 4.303,-1.878 1.293,0 2.338,0.388 3.138,1.164 v 4.15 h -2.459 v 2.062 h 4.879 v -7.727 c -0.645,-0.552 -1.546,-0.993 -2.698,-1.325 -1.157,-0.338 -2.277,-0.504 -3.366,-0.504 -2.448,0 -4.377,0.831 -5.793,2.49 -1.419,1.66 -2.125,3.861 -2.125,6.613 0,2.745 0.775,4.973 2.331,6.681 1.553,1.708 3.65,2.561 6.288,2.561 C -2.667,1.537 -1.163,1.024 0,0" />
      </g>
      <g
         transform="translate(596.8099,236.1507)"
         id="g110">
        <path
           inkscape:connector-curvature="0"
           id="path112"
           style="fill:#10253f;fill-opacity:1;fill-rule:nonzero;stroke:none"
           d="M 0,0 V -4.928 H 5.86 V -6.985 H 0 v -6.397 H 8.041 V -15.56 H -2.42 V 2.181 H 8.173 V 0 Z" />
      </g>
      <g
         transform="translate(621.0265,220.5901)"
         id="g114">
        <path
           inkscape:connector-curvature="0"
           id="path116"
           style="fill:#10253f;fill-opacity:1;fill-rule:nonzero;stroke:none"
           d="M 0,0 -2.107,11.394 -5.981,-0.24 H -6.587 L -10.571,11.394 -12.629,0 h -2.299 l 3.317,17.74 h 1.103 L -6.284,4.798 -2.385,17.74 h 1.09 L 2.299,0 Z" />
      </g>
      <g
         transform="translate(627.686,236.1507)"
         id="g118">
        <path
           inkscape:connector-curvature="0"
           id="path120"
           style="fill:#10253f;fill-opacity:1;fill-rule:nonzero;stroke:none"
           d="M 0,0 V -4.928 H 5.86 V -6.985 H 0 v -6.397 H 8.041 V -15.56 H -2.42 V 2.181 H 8.173 V 0 Z" />
      </g>
      <g
         transform="translate(650.0138,220.3492)"
         id="g122">
        <path
           inkscape:connector-curvature="0"
           id="path124"
           style="fill:#10253f;fill-opacity:1;fill-rule:nonzero;stroke:none"
           d="M 0,0 -9.166,12.969 V 0.24 h -2.299 V 17.98 H -10.5 L -1.573,5.717 V 17.98 H 0.726 V 0 Z" />
      </g>
      <g
         transform="translate(660.8362,236.1507)"
         id="g126">
        <path
           inkscape:connector-curvature="0"
           id="path128"
           style="fill:#10253f;fill-opacity:1;fill-rule:nonzero;stroke:none"
           d="M 0,0 V -15.56 H -2.42 V 0 H -8.063 V 2.181 H 5.896 V 0 Z" />
      </g>
      <g
         transform="translate(674.9918,221.4043)"
         id="g130">
        <path
           inkscape:connector-curvature="0"
           id="path132"
           style="fill:#10253f;fill-opacity:1;fill-rule:nonzero;stroke:none"
           d="M 0,0 0.885,2.228 C 1.336,1.896 1.898,1.62 2.57,1.396 3.245,1.172 3.85,1.065 4.381,1.065 c 0.946,0 1.706,0.257 2.28,0.773 0.571,0.517 0.856,1.174 0.856,1.974 0,0.596 -0.16,1.152 -0.475,1.663 C 6.721,5.988 5.921,6.548 4.637,7.151 l -1.428,0.67 c -1.21,0.565 -2.057,1.235 -2.537,2.011 -0.482,0.773 -0.719,1.705 -0.719,2.797 0,1.322 0.466,2.42 1.401,3.292 0.936,0.869 2.142,1.306 3.61,1.306 1.961,0 3.324,-0.318 4.092,-0.957 L 8.344,14.164 c -0.325,0.233 -0.818,0.459 -1.48,0.679 -0.661,0.219 -1.275,0.329 -1.839,0.329 -0.825,0 -1.473,-0.237 -1.943,-0.706 -0.473,-0.468 -0.709,-1.067 -0.709,-1.804 0,-0.45 0.085,-0.86 0.254,-1.232 0.17,-0.372 0.407,-0.684 0.708,-0.933 C 3.637,10.246 4.256,9.892 5.193,9.442 L 6.647,8.754 C 7.857,8.18 8.707,7.494 9.197,6.701 9.684,5.905 9.928,4.895 9.928,3.669 9.928,2.333 9.392,1.203 8.323,0.276 7.252,-0.652 5.825,-1.116 4.032,-1.116 2.458,-1.116 1.114,-0.744 0,0" />
      </g>
      <g
         transform="translate(690.187,223.9955)"
         id="g134">
        <path
           inkscape:connector-curvature="0"
           id="path136"
           style="fill:#10253f;fill-opacity:1;fill-rule:nonzero;stroke:none"
           d="M 0,0 C 0.502,0 0.93,-0.179 1.284,-0.533 1.638,-0.887 1.818,-1.318 1.818,-1.818 1.818,-2.32 1.638,-2.75 1.284,-3.108 0.93,-3.467 0.502,-3.646 0,-3.646 c -0.5,0 -0.928,0.179 -1.282,0.538 -0.354,0.358 -0.533,0.788 -0.533,1.29 0,0.5 0.179,0.931 0.533,1.285 C -0.928,-0.179 -0.5,0 0,0" />
      </g>
      <g
         transform="translate(702.4648,233.9228)"
         id="g138">
        <path
           inkscape:connector-curvature="0"
           id="path140"
           style="fill:#10253f;fill-opacity:1;fill-rule:nonzero;stroke:none"
           d="M 0,0 -2.75,-7.808 H 2.519 Z M 4.433,-13.332 3.209,-9.59 h -6.6 L -4.7,-13.332 h -2.711 l 7.205,17.98 h 0.641 l 6.685,-17.98 z" />
      </g>
      <g
         transform="translate(713.9177,223.9955)"
         id="g142">
        <path
           inkscape:connector-curvature="0"
           id="path144"
           style="fill:#10253f;fill-opacity:1;fill-rule:nonzero;stroke:none"
           d="M 0,0 C 0.502,0 0.93,-0.179 1.284,-0.533 1.638,-0.887 1.818,-1.318 1.818,-1.818 1.818,-2.32 1.638,-2.75 1.284,-3.108 0.93,-3.467 0.502,-3.646 0,-3.646 c -0.5,0 -0.928,0.179 -1.282,0.538 -0.354,0.358 -0.533,0.788 -0.533,1.29 0,0.5 0.179,0.931 0.533,1.285 C -0.928,-0.179 -0.5,0 0,0" />
      </g>
      <g
         transform="translate(733.908,220.5901)"
         id="g146">
        <path
           inkscape:connector-curvature="0"
           id="path148"
           style="fill:#10253f;fill-opacity:1;fill-rule:nonzero;stroke:none"
           d="M 0,0 -2.107,11.394 -5.982,-0.24 H -6.587 L -10.571,11.394 -12.629,0 h -2.299 l 3.317,17.74 h 1.103 L -6.284,4.798 -2.385,17.74 h 1.09 L 2.299,0 Z" />
      </g>
      <g
         transform="translate(740.616,223.9955)"
         id="g150">
        <path
           inkscape:connector-curvature="0"
           id="path152"
           style="fill:#10253f;fill-opacity:1;fill-rule:nonzero;stroke:none"
           d="M 0,0 C 0.502,0 0.93,-0.179 1.284,-0.533 1.638,-0.887 1.818,-1.318 1.818,-1.818 1.818,-2.32 1.638,-2.75 1.284,-3.108 0.93,-3.467 0.502,-3.646 0,-3.646 c -0.5,0 -0.928,0.179 -1.282,0.538 -0.354,0.358 -0.533,0.788 -0.533,1.29 0,0.5 0.179,0.931 0.533,1.285 C -0.928,-0.179 -0.5,0 0,0" />
      </g>
    </g>
  </g>
</svg>
